<?xml version="1.0" standalone="no"?>
<!DOCTYPE svg PUBLIC "-//W3C//DTD SVG 20010904//EN"
 "http://www.w3.org/TR/2001/REC-SVG-20010904/DTD/svg10.dtd">
<svg version="1.0" xmlns="http://www.w3.org/2000/svg"
 width="1024.000000pt" height="1024.000000pt" viewBox="0 0 1024.000000 1024.000000"
 preserveAspectRatio="xMidYMid meet">

<g transform="translate(0.000000,1024.000000) scale(0.100000,-0.100000)"
fill="#000000" stroke="none">
<path d="M0 5120 l0 -5120 5120 0 5120 0 0 5120 0 5120 -5120 0 -5120 0 0
-5120z m6140 2542 c58 -12 125 -26 150 -31 85 -18 295 -93 405 -145 451 -214
807 -565 1025 -1011 96 -196 133 -313 201 -630 9 -39 13 -151 14 -325 l1 -265
144 -6 c226 -9 376 -47 563 -143 143 -73 226 -134 342 -251 231 -231 351 -489
385 -827 20 -197 -12 -426 -87 -613 -73 -184 -161 -316 -307 -460 -200 -198
-406 -310 -687 -371 -79 -18 -152 -19 -1301 -19 -960 0 -1220 3 -1230 13 -7 7
-39 12 -79 12 -37 0 -70 4 -73 9 -4 5 -49 12 -101 16 -52 4 -98 11 -101 16 -3
5 -23 9 -44 9 -21 0 -41 4 -44 9 -3 5 -23 11 -43 14 -37 4 -90 21 -125 38 -10
5 -29 9 -42 9 -14 0 -28 5 -31 10 -4 6 -14 10 -23 9 -18 -3 -50 5 -92 23 -147
61 -255 110 -270 123 -8 7 -37 25 -65 39 -157 82 -414 318 -485 444 -8 15 -26
43 -40 62 -43 60 -140 251 -140 276 0 8 -7 26 -16 39 -9 14 -17 37 -19 52 -2
16 -9 46 -15 68 -21 72 -23 97 -27 293 -3 126 0 205 8 230 11 38 28 112 33
147 5 37 17 72 50 148 9 21 16 43 16 51 0 17 100 225 150 311 16 28 34 59 40
70 9 18 42 68 111 171 15 22 36 48 48 58 11 11 21 23 21 29 0 15 49 71 238
272 94 101 172 186 172 189 0 17 -32 1 -71 -34 -24 -22 -48 -40 -52 -40 -8 0
-76 -48 -127 -89 -74 -60 -208 -173 -230 -194 -60 -58 -308 -329 -335 -367
-16 -23 -46 -60 -65 -83 -20 -23 -45 -55 -55 -71 -11 -16 -30 -43 -43 -60 -66
-92 -97 -138 -142 -211 -19 -31 -43 -69 -52 -84 -34 -51 -54 -88 -116 -216
-103 -211 -122 -252 -122 -266 0 -8 -7 -23 -15 -33 -8 -11 -15 -30 -15 -42 0
-13 -4 -25 -9 -28 -5 -4 -12 -25 -16 -49 -4 -23 -11 -46 -15 -52 -8 -11 -21
-69 -21 -100 0 -10 -4 -24 -8 -30 -9 -10 -20 -93 -24 -177 -2 -45 -17 -82 -17
-42 0 11 -5 25 -12 32 -7 7 -13 67 -16 162 -4 114 -8 150 -18 150 -7 0 -15 -8
-19 -18 -3 -11 -24 -43 -46 -73 -42 -56 -179 -326 -179 -353 0 -8 -4 -17 -9
-20 -5 -3 -12 -26 -15 -51 -4 -24 -11 -47 -17 -50 -5 -4 -9 -24 -9 -45 0 -21
-4 -42 -10 -45 -15 -9 -12 -233 3 -277 7 -21 16 -41 20 -44 4 -4 7 -16 7 -26
0 -19 19 -57 65 -133 27 -45 32 -75 11 -75 -8 0 -36 -10 -63 -21 -48 -22 -71
-28 -195 -51 -36 -7 -70 -16 -74 -21 -4 -4 -26 -7 -49 -7 -22 0 -46 -5 -53
-12 -9 -9 -74 -12 -235 -13 -238 0 -303 9 -466 62 -326 106 -606 344 -778 663
-39 73 -129 301 -149 381 -45 176 -68 431 -45 509 5 19 17 78 27 130 68 383
331 753 679 958 129 75 310 144 439 167 38 6 38 7 33 43 -26 161 -29 197 -23
289 14 238 118 461 289 619 91 84 179 139 310 193 145 59 389 73 547 31 98
-26 202 -71 283 -123 65 -42 200 -167 225 -209 9 -16 23 -27 30 -26 8 2 26 35
41 73 134 342 373 663 666 895 268 212 616 373 930 430 66 11 134 25 150 30
17 5 145 7 285 6 215 -2 271 -6 360 -24z m-2580 -4036 c0 -15 35 -129 49 -161
5 -11 21 -49 36 -85 14 -36 33 -72 40 -80 8 -8 18 -26 24 -40 11 -23 50 -85
113 -176 40 -58 254 -274 272 -274 4 0 26 -15 49 -33 74 -60 339 -187 400
-192 10 -1 23 -7 30 -14 10 -10 -15 -12 -123 -9 -113 3 -142 6 -175 24 -22 11
-69 35 -105 53 -150 76 -257 158 -393 301 -77 81 -103 117 -141 193 -25 52
-46 101 -46 110 0 9 -4 18 -9 22 -5 3 -13 30 -16 60 -4 31 -11 58 -16 61 -5 3
-9 64 -9 135 0 84 4 128 10 124 6 -3 10 -12 10 -19z m-472 -323 c9 -21 17 -42
17 -48 2 -18 56 -127 70 -142 8 -8 15 -19 15 -25 0 -5 12 -27 28 -47 15 -20
32 -43 37 -52 42 -67 75 -107 166 -200 93 -94 142 -133 261 -204 l33 -20 -102
-3 c-99 -3 -104 -2 -160 30 -97 54 -119 72 -210 169 -142 151 -183 253 -183
453 0 69 2 126 6 126 3 0 13 -17 22 -37z"/>
</g>
</svg>
